# xmcd
#
# Track frame offsets:
#	150
#	16761
#	32916
#	45543
#	61197
#	80277
#	95666
#	109868
#	125767
#	145732
#	162992
#
# Disc length: 2394 seconds
# Revision: 1
# Processed by: cddbd v1.5.2PL0 Copyright (c) Steve Scherf et al.
# Submitted via: dBpowerAMP V12.0
#
DISCID=8b09580b
DTITLE=LennyCooper,ChippingBarnet,London,England,UK - Diesel Fuel
DYEAR=2011
DGENRE=Country
TTITLE0=Mud Digger 2011
TTITLE1=Big Tires
TTITLE2=Country Boy
TTITLE3=Hillbilly Dance
TTITLE4=Simple Man
TTITLE5=Small Town
TTITLE6=Southern Way
TTITLE7=Three Bottles
TTITLE8=What You Think Of Me
TTITLE9=Back Wood Tailgating
TTITLE10=Mud Digger (Remix)
EXTD=
EXTT0=
EXTT1=
EXTT2=
EXTT3=
EXTT4=
EXTT5=
EXTT6=
EXTT7=
EXTT8=
EXTT9=
EXTT10=
PLAYORDER=
